<svg width="34" height="34" viewBox="0 0 34 34" fill="none" xmlns="http://www.w3.org/2000/svg">
<g clip-path="url(#clip0_9_2)">
<path fill-rule="evenodd" clip-rule="evenodd" d="M17 0C26.3891 0 34 7.80288 34 17.43C34 25.1293 29.1346 31.6607 22.3839 33.9676C21.522 34.1393 21.216 33.595 21.216 33.1309C21.216 32.5563 21.2364 30.6796 21.2364 28.3472C21.2364 26.722 20.6924 25.6613 20.0821 25.1207C23.868 24.6889 27.846 23.2148 27.846 16.5202C27.846 14.6162 27.1864 13.0625 26.095 11.8419C26.2718 11.4016 26.8549 9.62872 25.9284 7.22832C25.9284 7.22832 24.5038 6.76128 21.2585 9.01548C19.9002 8.62958 18.445 8.43541 17 8.42861C15.555 8.43541 14.1015 8.62958 12.7449 9.01548C9.4962 6.76128 8.0682 7.22832 8.0682 7.22832C7.1451 9.62872 7.7282 11.4016 7.9033 11.8419C6.817 13.0625 6.15231 14.6162 6.15231 16.5202C6.15231 23.1978 10.1218 24.6945 13.8975 25.1348C13.4113 25.57 12.971 26.3377 12.818 27.4648C11.849 27.9102 9.3874 28.681 7.871 26.0171C7.871 26.0171 6.9717 24.3424 5.2649 24.22C5.2649 24.22 3.6074 24.198 5.1493 25.2792C5.1493 25.2792 6.2628 25.8147 7.0363 27.8292C7.0363 27.8292 8.03421 30.9401 12.7636 29.8861C12.7721 31.343 12.7874 32.7161 12.7874 33.1309C12.7874 33.5916 12.4746 34.1308 11.6263 33.9693C4.87049 31.6658 0 25.131 0 17.43C0 7.80288 7.6126 0 17 0Z" fill="white"/>
</g>
<defs>
<clipPath id="clip0_9_2">
<rect width="34" height="34" fill="white"/>
</clipPath>
</defs>
</svg>
